<svg xmlns="http://www.w3.org/2000/svg" width="22" height="21" fill="none" viewBox="0 0 22 21">
  <path fill="#1977F3" d="M10.835 20.507c5.644 0 10.219-4.575 10.219-10.219C21.054 4.646 16.479.07 10.836.07 5.191.07.617 4.645.617 10.29c0 5.643 4.575 10.218 10.218 10.218Z"/>
  <path fill="#fff" d="m14.813 13.243.453-2.954h-2.834V8.372c0-.808.395-1.597 1.665-1.597h1.29V4.261s-1.17-.2-2.288-.2c-2.334 0-3.86 1.414-3.86 3.976v2.252H6.644v2.954h2.595v7.14a10.433 10.433 0 0 0 3.193 0v-7.14h2.381Z"/>
</svg>
