<svg xmlns="http://www.w3.org/2000/svg" width="18" height="21" fill="none" viewBox="0 0 18 21">
  <path fill="#000" d="M17.155 15.996a11.1 11.1 0 0 1-1.099 1.976c-.577.824-1.05 1.394-1.415 1.71-.565.52-1.17.786-1.82.801-.464 0-1.026-.132-1.68-.4-.655-.268-1.257-.4-1.808-.4-.578 0-1.198.132-1.86.4-.664.268-1.199.408-1.608.422-.622.026-1.241-.247-1.86-.822-.395-.345-.889-.935-1.48-1.772-.635-.893-1.157-1.929-1.566-3.11-.438-1.274-.657-2.51-.657-3.705 0-1.37.296-2.55.889-3.54a5.213 5.213 0 0 1 1.861-1.883 5.007 5.007 0 0 1 2.516-.71c.494 0 1.142.152 1.947.452.802.302 1.317.454 1.543.454.17 0 .742-.178 1.712-.534.918-.33 1.692-.467 2.327-.413 1.72.138 3.011.816 3.87 2.037-1.538.932-2.298 2.237-2.283 3.911.014 1.304.487 2.39 1.417 3.25.42.4.891.71 1.415.93-.114.328-.234.644-.361.946ZM13.212.48c0 1.022-.374 1.977-1.118 2.86-.898 1.05-1.984 1.657-3.163 1.56a3.182 3.182 0 0 1-.023-.386c0-.982.427-2.032 1.185-2.89.38-.435.86-.796 1.445-1.085.583-.284 1.134-.44 1.652-.468.015.137.022.274.022.41Z"/>
</svg>
