<svg xmlns="http://www.w3.org/2000/svg" viewBox="0 0 929.92 278.13"><defs><style>.cls-1{fill:#56baa7;}</style></defs><g id="Camada_2" data-name="Camada 2"><g id="Camada_1-2" data-name="Camada 1"><path class="cls-1" d="M204.93,46.52,187.18,63.44a15.2,15.2,0,0,1-20.3.56Q142,43,112.11,43,81.8,43,61,63.73t-20.76,51.1q0,21.17,9.19,37.57a65.93,65.93,0,0,0,26,25.77,75.49,75.49,0,0,0,37.36,9.36,77.13,77.13,0,0,0,32-6.55q10.8-4.87,23.2-15.7a12.55,12.55,0,0,1,17.28.83l18.71,19.53q-23.43,22.88-44.29,31.72t-47.6,8.85q-49.32,0-80.75-31.28T0,114.76Q0,83.13,14.31,58.53T55.29,19A115.62,115.62,0,0,1,112.75,4a121.93,121.93,0,0,1,92.18,42.49Z"/><path class="cls-1" d="M317.66,60.59h-.06c-3.65-.26-7.13-.31-10.45-.28s-6.47.09-9.46.09q-30.58,0-52,23.15t-21.41,59.39q0,35,22.12,58.46t52.43,23.51a64.58,64.58,0,0,0,25.07-4.81q11.56-4.83,23-15.75v8.43a8.11,8.11,0,0,0,8.1,8.11h31.16v-90.8A76.19,76.19,0,0,0,317.66,60.59Zm18.85,48.7q12.18,12.66,12.18,33.08,0,20.85-12.18,33.72T305.83,189a39.7,39.7,0,0,1-30.17-13.09q-12.26-13.08-12.25-33.36,0-20.13,12-33t30.24-12.87Q324.32,96.64,336.51,109.29Z"/><path class="cls-1" d="M517.32,86.28l-17.64,17.64a10,10,0,0,1-13.29.73q-11-8.73-20.26-8.73-6.61,0-10.36,2.8a8.44,8.44,0,0,0-3.73,7,8.56,8.56,0,0,0,2.37,5.82q2.37,2.67,11.72,7.27L480.51,126q22.73,11.2,31.21,22.86t8.48,27.33q0,20.85-15.32,34.8t-41.05,13.95q-28.68,0-47.66-18.77a11,11,0,0,1-.35-15.21l17.52-19.09a55.75,55.75,0,0,0,16.18,13q9.27,4.95,16.46,5,7.77,0,12.52-3.74t4.74-8.63q0-9.06-17.11-17.69l-13.23-6.61q-38-19.12-38-47.89,0-18.55,14.31-31.71t36.6-13.16a63.52,63.52,0,0,1,51.48,25.88Z"/><path class="cls-1" d="M546.9,4h25.84a13.13,13.13,0,0,1,13.13,13.13V80.25A89.5,89.5,0,0,1,609,65.36a59.69,59.69,0,0,1,23.59-5q23.29,0,39.26,16.11,13.67,14,13.66,41v103.4H655.17a8.33,8.33,0,0,1-8.32-8.33V152.29q0-27.18-2.59-36.81t-8.85-14.38q-6.25-4.75-15.46-4.75a29.15,29.15,0,0,0-20.49,7.91q-8.55,7.92-11.86,21.57-1.73,7-1.73,32.22v62.84H556.6a9.7,9.7,0,0,1-9.7-9.7Z"/><path class="cls-1" d="M708.07,64.43H722q.15-30.78,1-36.39,1.58-12.94,10.86-20.49T760.13,0q12.23,0,27.61,5.61V26.79a6.91,6.91,0,0,1-8,6.84,36,36,0,0,0-5.91-.55q-6.9,0-10.06,2.87c-1.54,1.44-2.3,4.41-2.3,8.92l-.15,19.56h24.88V97.65H761.28V220.89h-27A12.21,12.21,0,0,1,722,208.68v-111h-5a9,9,0,0,1-9-9Z"/><path class="cls-1" d="M768.54,64.43h28.84A16.89,16.89,0,0,1,813,74.85L849.3,162.6l44.85-98.17h27.74a8,8,0,0,1,7.29,11.35L836.39,278.13H812.26a10.45,10.45,0,0,1-9.47-14.88l25.23-54Z"/></g></g></svg>